<mxfile host="app.diagrams.net" modified="2023-04-10T05:14:52.185Z" agent="Mozilla/5.0 (Windows NT 10.0; Win64; x64) AppleWebKit/537.36 (KHTML, like Gecko) Chrome/111.0.0.0 Safari/537.36" etag="J0M5-MlhtvI_9JHkd2nI" version="21.1.5" type="device">
  <diagram name="Page-1" id="rz1zqwxMDIf5COSyl11j">
    <mxGraphModel dx="558" dy="267" grid="1" gridSize="10" guides="1" tooltips="1" connect="1" arrows="1" fold="1" page="1" pageScale="1" pageWidth="850" pageHeight="1100" math="0" shadow="0">
      <root>
        <mxCell id="0" />
        <mxCell id="1" parent="0" />
        <mxCell id="Tpvo5T71qZr_ZcqEsj0c-1" value="" style="swimlane;whiteSpace=wrap;html=1;startSize=50;" vertex="1" parent="1">
          <mxGeometry y="80" width="850" height="740" as="geometry" />
        </mxCell>
        <mxCell id="Tpvo5T71qZr_ZcqEsj0c-9" value="&lt;font style=&quot;&quot;&gt;&lt;font style=&quot;font-size: 18px;&quot;&gt;File/Document Viewer&lt;br&gt;(Button)&lt;/font&gt;&lt;br&gt;&lt;/font&gt;" style="rounded=0;whiteSpace=wrap;html=1;" vertex="1" parent="Tpvo5T71qZr_ZcqEsj0c-1">
          <mxGeometry x="500" width="190" height="50" as="geometry" />
        </mxCell>
        <mxCell id="Tpvo5T71qZr_ZcqEsj0c-10" value="&lt;font style=&quot;&quot;&gt;&lt;font style=&quot;font-size: 18px;&quot;&gt;Developer Logs&lt;br&gt;(Button)&lt;/font&gt;&lt;br&gt;&lt;/font&gt;" style="rounded=0;whiteSpace=wrap;html=1;" vertex="1" parent="Tpvo5T71qZr_ZcqEsj0c-1">
          <mxGeometry x="345" width="160" height="50" as="geometry" />
        </mxCell>
        <mxCell id="Tpvo5T71qZr_ZcqEsj0c-11" value="&lt;font style=&quot;&quot;&gt;&lt;font style=&quot;font-size: 18px;&quot;&gt;Contact Information&lt;br&gt;(Button)&lt;/font&gt;&lt;br&gt;&lt;/font&gt;" style="rounded=0;whiteSpace=wrap;html=1;" vertex="1" parent="Tpvo5T71qZr_ZcqEsj0c-1">
          <mxGeometry x="690" width="160" height="50" as="geometry" />
        </mxCell>
        <mxCell id="Tpvo5T71qZr_ZcqEsj0c-12" value="&lt;font style=&quot;font-size: 18px;&quot;&gt;Home&lt;/font&gt;" style="rounded=0;whiteSpace=wrap;html=1;" vertex="1" parent="Tpvo5T71qZr_ZcqEsj0c-1">
          <mxGeometry y="-5" width="160" height="55" as="geometry" />
        </mxCell>
        <mxCell id="Tpvo5T71qZr_ZcqEsj0c-13" value="&lt;font style=&quot;font-size: 18px;&quot;&gt;Project Description&lt;/font&gt;" style="rounded=0;whiteSpace=wrap;html=1;" vertex="1" parent="Tpvo5T71qZr_ZcqEsj0c-1">
          <mxGeometry x="160" width="190" height="50" as="geometry" />
        </mxCell>
        <mxCell id="Tpvo5T71qZr_ZcqEsj0c-16" value="&lt;font style=&quot;font-size: 72px;&quot;&gt;Description text&lt;/font&gt;" style="rounded=0;whiteSpace=wrap;html=1;" vertex="1" parent="Tpvo5T71qZr_ZcqEsj0c-1">
          <mxGeometry y="190" width="640" height="550" as="geometry" />
        </mxCell>
        <mxCell id="Tpvo5T71qZr_ZcqEsj0c-17" value="&lt;font style=&quot;font-size: 36px;&quot;&gt;Project Descption&lt;br&gt;(Heading)&lt;/font&gt;" style="rounded=0;whiteSpace=wrap;html=1;" vertex="1" parent="Tpvo5T71qZr_ZcqEsj0c-1">
          <mxGeometry y="50" width="640" height="140" as="geometry" />
        </mxCell>
        <mxCell id="Tpvo5T71qZr_ZcqEsj0c-23" value="&lt;font style=&quot;font-size: 36px;&quot;&gt;Dev Log Update&lt;/font&gt;" style="rounded=0;whiteSpace=wrap;html=1;" vertex="1" parent="Tpvo5T71qZr_ZcqEsj0c-1">
          <mxGeometry x="640" y="50" width="210" height="110" as="geometry" />
        </mxCell>
        <mxCell id="Tpvo5T71qZr_ZcqEsj0c-24" value="&lt;font style=&quot;font-size: 36px;&quot;&gt;Updated Log List&lt;/font&gt;" style="rounded=0;whiteSpace=wrap;html=1;" vertex="1" parent="Tpvo5T71qZr_ZcqEsj0c-1">
          <mxGeometry x="640" y="160" width="210" height="580" as="geometry" />
        </mxCell>
        <mxCell id="Tpvo5T71qZr_ZcqEsj0c-7" value="&lt;font style=&quot;font-size: 18px;&quot;&gt;Sign In Button/Logged In As (User)&lt;/font&gt;" style="rounded=0;whiteSpace=wrap;html=1;" vertex="1" parent="1">
          <mxGeometry x="640" width="210" height="80" as="geometry" />
        </mxCell>
        <mxCell id="Tpvo5T71qZr_ZcqEsj0c-8" value="&lt;font style=&quot;font-size: 36px;&quot;&gt;Project (Code Name Insert)&lt;/font&gt;" style="rounded=0;whiteSpace=wrap;html=1;" vertex="1" parent="1">
          <mxGeometry x="160" width="480" height="80" as="geometry" />
        </mxCell>
        <mxCell id="Tpvo5T71qZr_ZcqEsj0c-14" value="&lt;font style=&quot;font-size: 36px;&quot;&gt;Logo&lt;/font&gt;" style="rounded=0;whiteSpace=wrap;html=1;" vertex="1" parent="1">
          <mxGeometry width="160" height="80" as="geometry" />
        </mxCell>
        <mxCell id="Tpvo5T71qZr_ZcqEsj0c-25" value="&lt;font style=&quot;&quot;&gt;&lt;font style=&quot;font-size: 18px;&quot;&gt;File/Document Viewer&lt;br&gt;(Button)&lt;/font&gt;&lt;br&gt;&lt;/font&gt;" style="rounded=0;whiteSpace=wrap;html=1;" vertex="1" parent="1">
          <mxGeometry x="500" y="810" width="190" height="55" as="geometry" />
        </mxCell>
        <mxCell id="Tpvo5T71qZr_ZcqEsj0c-26" value="&lt;font style=&quot;&quot;&gt;&lt;font style=&quot;font-size: 18px;&quot;&gt;Developer Logs&lt;br&gt;(Button)&lt;/font&gt;&lt;br&gt;&lt;/font&gt;" style="rounded=0;whiteSpace=wrap;html=1;" vertex="1" parent="1">
          <mxGeometry x="345" y="810" width="160" height="55" as="geometry" />
        </mxCell>
        <mxCell id="Tpvo5T71qZr_ZcqEsj0c-27" value="&lt;font style=&quot;&quot;&gt;&lt;font style=&quot;font-size: 18px;&quot;&gt;Contact Information&lt;br&gt;(Button)&lt;/font&gt;&lt;br&gt;&lt;/font&gt;" style="rounded=0;whiteSpace=wrap;html=1;" vertex="1" parent="1">
          <mxGeometry x="690" y="810" width="160" height="55" as="geometry" />
        </mxCell>
        <mxCell id="Tpvo5T71qZr_ZcqEsj0c-28" value="&lt;font style=&quot;font-size: 18px;&quot;&gt;Home&lt;/font&gt;" style="rounded=0;whiteSpace=wrap;html=1;" vertex="1" parent="1">
          <mxGeometry y="810" width="160" height="55" as="geometry" />
        </mxCell>
        <mxCell id="Tpvo5T71qZr_ZcqEsj0c-29" value="&lt;font style=&quot;font-size: 18px;&quot;&gt;Project Description&lt;/font&gt;" style="rounded=0;whiteSpace=wrap;html=1;" vertex="1" parent="1">
          <mxGeometry x="160" y="810" width="190" height="55" as="geometry" />
        </mxCell>
      </root>
    </mxGraphModel>
  </diagram>
</mxfile>
